<svg width="1180" height="30" viewBox="0 0 1180 30" fill="none" xmlns="http://www.w3.org/2000/svg">
<path d="M365.486 8.90909V10.3153H359.17V22H357.585V8.90909H365.486ZM368.223 19.7756L372.953 12.1818H374.692V22H373.183V14.4062L368.479 22H366.715V12.1818H368.223V19.7756ZM377.455 25.6818V12.1818H378.912V13.7415H379.091C379.202 13.571 379.355 13.3537 379.551 13.0895C379.752 12.821 380.037 12.5824 380.408 12.3736C380.783 12.1605 381.29 12.054 381.929 12.054C382.756 12.054 383.485 12.2607 384.115 12.674C384.746 13.0874 385.238 13.6733 385.592 14.4318C385.946 15.1903 386.123 16.0852 386.123 17.1165C386.123 18.1562 385.946 19.0575 385.592 19.8203C385.238 20.5788 384.748 21.1669 384.122 21.5845C383.495 21.9979 382.773 22.2045 381.955 22.2045C381.324 22.2045 380.819 22.1001 380.44 21.8913C380.061 21.6783 379.769 21.4375 379.564 21.169C379.36 20.8963 379.202 20.6705 379.091 20.4915H378.963V25.6818H377.455ZM378.938 17.0909C378.938 17.8324 379.047 18.4865 379.264 19.0533C379.481 19.6158 379.799 20.0568 380.216 20.3764C380.634 20.6918 381.145 20.8494 381.75 20.8494C382.381 20.8494 382.907 20.6832 383.329 20.3509C383.755 20.0142 384.075 19.5625 384.288 18.9957C384.505 18.4247 384.614 17.7898 384.614 17.0909C384.614 16.4006 384.507 15.7784 384.294 15.2244C384.086 14.6662 383.768 14.2251 383.342 13.9013C382.92 13.5732 382.39 13.4091 381.75 13.4091C381.137 13.4091 380.621 13.5646 380.203 13.8757C379.786 14.1825 379.471 14.6129 379.257 15.1669C379.044 15.7166 378.938 16.358 378.938 17.0909ZM392.412 22.2045C391.526 22.2045 390.748 21.9936 390.079 21.5717C389.414 21.1499 388.895 20.5597 388.52 19.8011C388.149 19.0426 387.963 18.1562 387.963 17.142C387.963 16.1193 388.149 15.2266 388.52 14.4638C388.895 13.701 389.414 13.1087 390.079 12.6868C390.748 12.2649 391.526 12.054 392.412 12.054C393.299 12.054 394.074 12.2649 394.739 12.6868C395.408 13.1087 395.928 13.701 396.299 14.4638C396.674 15.2266 396.861 16.1193 396.861 17.142C396.861 18.1562 396.674 19.0426 396.299 19.8011C395.928 20.5597 395.408 21.1499 394.739 21.5717C394.074 21.9936 393.299 22.2045 392.412 22.2045ZM392.412 20.8494C393.086 20.8494 393.64 20.6768 394.074 20.3317C394.509 19.9865 394.831 19.5327 395.039 18.9702C395.248 18.4077 395.353 17.7983 395.353 17.142C395.353 16.4858 395.248 15.8743 395.039 15.3075C394.831 14.7408 394.509 14.2827 394.074 13.9332C393.64 13.5838 393.086 13.4091 392.412 13.4091C391.739 13.4091 391.185 13.5838 390.75 13.9332C390.316 14.2827 389.994 14.7408 389.785 15.3075C389.576 15.8743 389.472 16.4858 389.472 17.142C389.472 17.7983 389.576 18.4077 389.785 18.9702C389.994 19.5327 390.316 19.9865 390.75 20.3317C391.185 20.6768 391.739 20.8494 392.412 20.8494ZM403.153 22.2045C402.232 22.2045 401.439 21.9872 400.775 21.5526C400.11 21.1179 399.599 20.5192 399.241 19.7564C398.883 18.9936 398.704 18.1222 398.704 17.142C398.704 16.1449 398.887 15.2649 399.253 14.5021C399.624 13.7351 400.14 13.1364 400.8 12.706C401.465 12.2713 402.241 12.054 403.127 12.054C403.817 12.054 404.439 12.1818 404.993 12.4375C405.547 12.6932 406.001 13.0511 406.355 13.5114C406.709 13.9716 406.928 14.5085 407.013 15.1222H405.505C405.39 14.6747 405.134 14.2784 404.738 13.9332C404.346 13.5838 403.817 13.4091 403.153 13.4091C402.564 13.4091 402.049 13.5625 401.606 13.8693C401.167 14.1719 400.824 14.6001 400.577 15.1541C400.334 15.7038 400.212 16.3494 400.212 17.0909C400.212 17.8494 400.331 18.5099 400.57 19.0724C400.813 19.6349 401.154 20.0717 401.593 20.3828C402.036 20.6939 402.556 20.8494 403.153 20.8494C403.545 20.8494 403.9 20.7812 404.22 20.6449C404.54 20.5085 404.81 20.3125 405.032 20.0568C405.253 19.8011 405.411 19.4943 405.505 19.1364H407.013C406.928 19.7159 406.717 20.2379 406.381 20.7024C406.048 21.1626 405.607 21.5291 405.057 21.8018C404.512 22.0703 403.877 22.2045 403.153 22.2045ZM409.219 22V12.1818H410.727V16.4517H411.724L415.253 12.1818H417.196L413.233 16.9119L417.247 22H415.304L412.082 17.858H410.727V22H409.219ZM419.858 25.6818C419.602 25.6818 419.374 25.6605 419.174 25.6179C418.974 25.5795 418.835 25.5412 418.759 25.5028L419.142 24.1733C419.509 24.267 419.833 24.3011 420.114 24.2756C420.395 24.25 420.644 24.1243 420.862 23.8984C421.083 23.6768 421.286 23.3168 421.469 22.8182L421.75 22.0511L418.119 12.1818H419.756L422.466 20.0057H422.568L425.279 12.1818H426.915L422.747 23.4318C422.56 23.9389 422.328 24.3587 422.051 24.6911C421.774 25.0277 421.452 25.277 421.085 25.4389C420.723 25.6009 420.314 25.6818 419.858 25.6818ZM428.344 13.5881V12.1818H436.321V13.5881H433.099V22H431.591V13.5881H428.344ZM442.128 22.2045C441.182 22.2045 440.366 21.9957 439.68 21.5781C438.998 21.1562 438.472 20.5682 438.101 19.8139C437.735 19.0554 437.551 18.1733 437.551 17.1676C437.551 16.1619 437.735 15.2756 438.101 14.5085C438.472 13.7372 438.987 13.1364 439.648 12.706C440.313 12.2713 441.088 12.054 441.975 12.054C442.486 12.054 442.991 12.1392 443.49 12.3097C443.988 12.4801 444.442 12.7571 444.851 13.1406C445.26 13.5199 445.586 14.0227 445.829 14.6491C446.072 15.2756 446.193 16.0469 446.193 16.9631V17.6023H438.625V16.2983H444.659C444.659 15.7443 444.548 15.25 444.327 14.8153C444.11 14.3807 443.798 14.0376 443.394 13.7862C442.993 13.5348 442.52 13.4091 441.975 13.4091C441.374 13.4091 440.854 13.5582 440.415 13.8565C439.98 14.1506 439.646 14.5341 439.411 15.0071C439.177 15.4801 439.06 15.9872 439.06 16.5284V17.3977C439.06 18.1392 439.188 18.7678 439.443 19.2834C439.703 19.7947 440.063 20.1847 440.524 20.4531C440.984 20.7173 441.519 20.8494 442.128 20.8494C442.524 20.8494 442.882 20.794 443.202 20.6832C443.526 20.5682 443.805 20.3977 444.039 20.1719C444.274 19.9418 444.455 19.6562 444.583 19.3153L446.04 19.7244C445.887 20.2188 445.629 20.6534 445.267 21.0284C444.904 21.3991 444.457 21.6889 443.924 21.8977C443.392 22.1023 442.793 22.2045 442.128 22.2045ZM448.488 25.6818V12.1818H449.945V13.7415H450.124C450.235 13.571 450.389 13.3537 450.585 13.0895C450.785 12.821 451.07 12.5824 451.441 12.3736C451.816 12.1605 452.323 12.054 452.963 12.054C453.789 12.054 454.518 12.2607 455.149 12.674C455.779 13.0874 456.271 13.6733 456.625 14.4318C456.979 15.1903 457.156 16.0852 457.156 17.1165C457.156 18.1562 456.979 19.0575 456.625 19.8203C456.271 20.5788 455.781 21.1669 455.155 21.5845C454.529 21.9979 453.806 22.2045 452.988 22.2045C452.357 22.2045 451.852 22.1001 451.473 21.8913C451.094 21.6783 450.802 21.4375 450.597 21.169C450.393 20.8963 450.235 20.6705 450.124 20.4915H449.997V25.6818H448.488ZM449.971 17.0909C449.971 17.8324 450.08 18.4865 450.297 19.0533C450.514 19.6158 450.832 20.0568 451.249 20.3764C451.667 20.6918 452.178 20.8494 452.784 20.8494C453.414 20.8494 453.941 20.6832 454.362 20.3509C454.789 20.0142 455.108 19.5625 455.321 18.9957C455.539 18.4247 455.647 17.7898 455.647 17.0909C455.647 16.4006 455.541 15.7784 455.328 15.2244C455.119 14.6662 454.801 14.2251 454.375 13.9013C453.953 13.5732 453.423 13.4091 452.784 13.4091C452.17 13.4091 451.654 13.5646 451.237 13.8757C450.819 14.1825 450.504 14.6129 450.291 15.1669C450.078 15.7166 449.971 16.358 449.971 17.0909ZM460.761 15.7358H463.573C464.724 15.7358 465.604 16.0277 466.213 16.6115C466.823 17.1953 467.127 17.9347 467.127 18.8295C467.127 19.4176 466.991 19.9524 466.718 20.4339C466.445 20.9112 466.045 21.2926 465.517 21.5781C464.988 21.8594 464.34 22 463.573 22H459.457V12.1818H460.965V20.5938H463.573C464.17 20.5938 464.66 20.4361 465.044 20.1207C465.427 19.8054 465.619 19.4006 465.619 18.9062C465.619 18.3864 465.427 17.9624 465.044 17.6342C464.66 17.3061 464.17 17.142 463.573 17.142H460.761V15.7358ZM468.687 22V12.1818H470.195V22H468.687Z" fill="white"/>
<path d="M513.585 8.90909H515.477L519.926 19.7756H520.08L524.528 8.90909H526.42V22H524.938V12.054H524.81L520.719 22H519.287L515.196 12.054H515.068V22H513.585V8.90909ZM533.383 22.2045C532.497 22.2045 531.719 21.9936 531.05 21.5717C530.385 21.1499 529.865 20.5597 529.49 19.8011C529.119 19.0426 528.934 18.1562 528.934 17.142C528.934 16.1193 529.119 15.2266 529.49 14.4638C529.865 13.701 530.385 13.1087 531.05 12.6868C531.719 12.2649 532.497 12.054 533.383 12.054C534.269 12.054 535.045 12.2649 535.71 12.6868C536.379 13.1087 536.899 13.701 537.269 14.4638C537.644 15.2266 537.832 16.1193 537.832 17.142C537.832 18.1562 537.644 19.0426 537.269 19.8011C536.899 20.5597 536.379 21.1499 535.71 21.5717C535.045 21.9936 534.269 22.2045 533.383 22.2045ZM533.383 20.8494C534.056 20.8494 534.61 20.6768 535.045 20.3317C535.48 19.9865 535.801 19.5327 536.01 18.9702C536.219 18.4077 536.323 17.7983 536.323 17.142C536.323 16.4858 536.219 15.8743 536.01 15.3075C535.801 14.7408 535.48 14.2827 535.045 13.9332C534.61 13.5838 534.056 13.4091 533.383 13.4091C532.71 13.4091 532.156 13.5838 531.721 13.9332C531.286 14.2827 530.965 14.7408 530.756 15.3075C530.547 15.8743 530.443 16.4858 530.443 17.142C530.443 17.7983 530.547 18.4077 530.756 18.9702C530.965 19.5327 531.286 19.9865 531.721 20.3317C532.156 20.6768 532.71 20.8494 533.383 20.8494ZM546.706 16.4006V17.8068H541.285V16.4006H546.706ZM541.643 12.1818V22H540.135V12.1818H541.643ZM547.856 12.1818V22H546.348V12.1818H547.856ZM554.6 22.2045C553.713 22.2045 552.936 21.9936 552.267 21.5717C551.602 21.1499 551.082 20.5597 550.707 19.8011C550.336 19.0426 550.151 18.1562 550.151 17.142C550.151 16.1193 550.336 15.2266 550.707 14.4638C551.082 13.701 551.602 13.1087 552.267 12.6868C552.936 12.2649 553.713 12.054 554.6 12.054C555.486 12.054 556.262 12.2649 556.926 12.6868C557.596 13.1087 558.115 13.701 558.486 14.4638C558.861 15.2266 559.049 16.1193 559.049 17.142C559.049 18.1562 558.861 19.0426 558.486 19.8011C558.115 20.5597 557.596 21.1499 556.926 21.5717C556.262 21.9936 555.486 22.2045 554.6 22.2045ZM554.6 20.8494C555.273 20.8494 555.827 20.6768 556.262 20.3317C556.696 19.9865 557.018 19.5327 557.227 18.9702C557.436 18.4077 557.54 17.7983 557.54 17.142C557.54 16.4858 557.436 15.8743 557.227 15.3075C557.018 14.7408 556.696 14.2827 556.262 13.9332C555.827 13.5838 555.273 13.4091 554.6 13.4091C553.926 13.4091 553.373 13.5838 552.938 13.9332C552.503 14.2827 552.181 14.7408 551.973 15.3075C551.764 15.8743 551.659 16.4858 551.659 17.142C551.659 17.7983 551.764 18.4077 551.973 18.9702C552.181 19.5327 552.503 19.9865 552.938 20.3317C553.373 20.6768 553.926 20.8494 554.6 20.8494ZM561.351 22V12.1818H562.86V16.4517H563.857L567.385 12.1818H569.329L565.366 16.9119L569.38 22H567.437L564.215 17.858H562.86V22H561.351ZM574.604 22.2045C573.717 22.2045 572.94 21.9936 572.271 21.5717C571.606 21.1499 571.086 20.5597 570.711 19.8011C570.34 19.0426 570.155 18.1562 570.155 17.142C570.155 16.1193 570.34 15.2266 570.711 14.4638C571.086 13.701 571.606 13.1087 572.271 12.6868C572.94 12.2649 573.717 12.054 574.604 12.054C575.49 12.054 576.266 12.2649 576.93 12.6868C577.599 13.1087 578.119 13.701 578.49 14.4638C578.865 15.2266 579.053 16.1193 579.053 17.142C579.053 18.1562 578.865 19.0426 578.49 19.8011C578.119 20.5597 577.599 21.1499 576.93 21.5717C576.266 21.9936 575.49 22.2045 574.604 22.2045ZM574.604 20.8494C575.277 20.8494 575.831 20.6768 576.266 20.3317C576.7 19.9865 577.022 19.5327 577.231 18.9702C577.44 18.4077 577.544 17.7983 577.544 17.142C577.544 16.4858 577.44 15.8743 577.231 15.3075C577.022 14.7408 576.7 14.2827 576.266 13.9332C575.831 13.5838 575.277 13.4091 574.604 13.4091C573.93 13.4091 573.376 13.5838 572.942 13.9332C572.507 14.2827 572.185 14.7408 571.977 15.3075C571.768 15.8743 571.663 16.4858 571.663 17.142C571.663 17.7983 571.768 18.4077 571.977 18.9702C572.185 19.5327 572.507 19.9865 572.942 20.3317C573.376 20.6768 573.93 20.8494 574.604 20.8494ZM580.486 22V20.5938H580.844C581.138 20.5938 581.383 20.5362 581.579 20.4212C581.775 20.3018 581.933 20.0952 582.052 19.8011C582.176 19.5028 582.269 19.0895 582.333 18.5611C582.401 18.0284 582.45 17.3509 582.48 16.5284L582.659 12.1818H589.205V22H587.696V13.5881H584.091L583.938 17.0909C583.904 17.8963 583.831 18.6058 583.72 19.2195C583.614 19.8288 583.45 20.3402 583.228 20.7536C583.011 21.1669 582.721 21.478 582.359 21.6868C581.997 21.8956 581.543 22 580.997 22H580.486ZM596.089 22.2045C595.143 22.2045 594.327 21.9957 593.641 21.5781C592.959 21.1562 592.433 20.5682 592.062 19.8139C591.695 19.0554 591.512 18.1733 591.512 17.1676C591.512 16.1619 591.695 15.2756 592.062 14.5085C592.433 13.7372 592.948 13.1364 593.609 12.706C594.274 12.2713 595.049 12.054 595.936 12.054C596.447 12.054 596.952 12.1392 597.45 12.3097C597.949 12.4801 598.403 12.7571 598.812 13.1406C599.221 13.5199 599.547 14.0227 599.79 14.6491C600.033 15.2756 600.154 16.0469 600.154 16.9631V17.6023H592.586V16.2983H598.62C598.62 15.7443 598.509 15.25 598.288 14.8153C598.07 14.3807 597.759 14.0376 597.355 13.7862C596.954 13.5348 596.481 13.4091 595.936 13.4091C595.335 13.4091 594.815 13.5582 594.376 13.8565C593.941 14.1506 593.607 14.5341 593.372 15.0071C593.138 15.4801 593.021 15.9872 593.021 16.5284V17.3977C593.021 18.1392 593.149 18.7678 593.404 19.2834C593.664 19.7947 594.024 20.1847 594.485 20.4531C594.945 20.7173 595.48 20.8494 596.089 20.8494C596.485 20.8494 596.843 20.794 597.163 20.6832C597.487 20.5682 597.766 20.3977 598 20.1719C598.235 19.9418 598.416 19.6562 598.544 19.3153L600.001 19.7244C599.847 20.2188 599.59 20.6534 599.227 21.0284C598.865 21.3991 598.418 21.6889 597.885 21.8977C597.352 22.1023 596.754 22.2045 596.089 22.2045ZM606.438 22.2045C605.517 22.2045 604.725 21.9872 604.06 21.5526C603.395 21.1179 602.884 20.5192 602.526 19.7564C602.168 18.9936 601.989 18.1222 601.989 17.142C601.989 16.1449 602.172 15.2649 602.539 14.5021C602.909 13.7351 603.425 13.1364 604.085 12.706C604.75 12.2713 605.526 12.054 606.412 12.054C607.102 12.054 607.725 12.1818 608.279 12.4375C608.833 12.6932 609.286 13.0511 609.64 13.5114C609.994 13.9716 610.213 14.5085 610.298 15.1222H608.79C608.675 14.6747 608.419 14.2784 608.023 13.9332C607.631 13.5838 607.102 13.4091 606.438 13.4091C605.85 13.4091 605.334 13.5625 604.891 13.8693C604.452 14.1719 604.109 14.6001 603.862 15.1541C603.619 15.7038 603.497 16.3494 603.497 17.0909C603.497 17.8494 603.617 18.5099 603.855 19.0724C604.098 19.6349 604.439 20.0717 604.878 20.3828C605.321 20.6939 605.841 20.8494 606.438 20.8494C606.83 20.8494 607.186 20.7812 607.505 20.6449C607.825 20.5085 608.095 20.3125 608.317 20.0568C608.539 19.8011 608.696 19.4943 608.79 19.1364H610.298C610.213 19.7159 610.002 20.2379 609.666 20.7024C609.333 21.1626 608.892 21.5291 608.343 21.8018C607.797 22.0703 607.162 22.2045 606.438 22.2045ZM615.393 22.2301C614.771 22.2301 614.206 22.1129 613.699 21.8786C613.192 21.6399 612.789 21.2969 612.491 20.8494C612.193 20.3977 612.044 19.8523 612.044 19.2131C612.044 18.6506 612.154 18.1946 612.376 17.8452C612.597 17.4915 612.894 17.2145 613.264 17.0142C613.635 16.8139 614.044 16.6648 614.492 16.5668C614.943 16.4645 615.397 16.3835 615.853 16.3239C616.45 16.2472 616.933 16.1896 617.304 16.1513C617.679 16.1087 617.952 16.0384 618.122 15.9403C618.297 15.8423 618.384 15.6719 618.384 15.429V15.3778C618.384 14.7472 618.212 14.2571 617.867 13.9077C617.526 13.5582 617.008 13.3835 616.313 13.3835C615.593 13.3835 615.029 13.5412 614.619 13.8565C614.21 14.1719 613.923 14.5085 613.757 14.8665L612.325 14.3551C612.58 13.7585 612.921 13.294 613.347 12.9616C613.778 12.625 614.247 12.3906 614.754 12.2585C615.265 12.1222 615.768 12.054 616.262 12.054C616.578 12.054 616.94 12.0923 617.349 12.169C617.762 12.2415 618.161 12.3928 618.544 12.6229C618.932 12.853 619.254 13.2003 619.509 13.6648C619.765 14.1293 619.893 14.7514 619.893 15.5312V22H618.384V20.6705H618.308C618.205 20.8835 618.035 21.1115 617.796 21.3544C617.558 21.5973 617.24 21.804 616.844 21.9744C616.448 22.1449 615.964 22.2301 615.393 22.2301ZM615.623 20.875C616.22 20.875 616.722 20.7578 617.132 20.5234C617.545 20.2891 617.856 19.9865 618.065 19.6158C618.278 19.245 618.384 18.8551 618.384 18.446V17.0653C618.32 17.142 618.18 17.2124 617.963 17.2763C617.749 17.3359 617.502 17.3892 617.221 17.4361C616.944 17.4787 616.673 17.517 616.409 17.5511C616.149 17.581 615.938 17.6065 615.776 17.6278C615.384 17.679 615.018 17.7621 614.677 17.8771C614.34 17.9879 614.068 18.1562 613.859 18.3821C613.654 18.6037 613.552 18.9062 613.552 19.2898C613.552 19.8139 613.746 20.2102 614.134 20.4787C614.526 20.7429 615.022 20.875 615.623 20.875Z" fill="white"/>
<path d="M671.588 14.9176V16.3239H666.193V14.9176H671.588ZM663.074 17.9091H664.71C664.851 18.8295 665.162 19.5369 665.643 20.0312C666.125 20.5256 666.896 20.7727 667.957 20.7727C668.707 20.7727 669.334 20.5618 669.837 20.1399C670.344 19.718 670.723 19.1598 670.974 18.4652C671.23 17.7706 671.358 17.0142 671.358 16.196V14.7386C671.358 13.8352 671.215 13.0405 670.93 12.3544C670.648 11.6641 670.241 11.1271 669.709 10.7436C669.18 10.3558 668.545 10.1619 667.804 10.1619C667.156 10.1619 666.619 10.277 666.193 10.5071C665.767 10.7372 665.435 11.0675 665.196 11.4979C664.957 11.9283 664.795 12.446 664.71 13.0511H663.074C663.159 12.2159 663.387 11.4744 663.758 10.8267C664.133 10.1747 664.655 9.66335 665.324 9.29261C665.997 8.91761 666.824 8.73011 667.804 8.73011C668.869 8.73011 669.79 8.9794 670.565 9.47798C671.341 9.9723 671.94 10.669 672.362 11.5682C672.783 12.4631 672.994 13.5114 672.994 14.7131V16.2216C672.994 17.4233 672.786 18.4716 672.368 19.3665C671.95 20.2571 671.364 20.9496 670.61 21.4439C669.856 21.9339 668.972 22.179 667.957 22.179C666.918 22.179 666.053 21.9915 665.362 21.6165C664.676 21.2372 664.146 20.7259 663.771 20.0824C663.4 19.4347 663.168 18.7102 663.074 17.9091ZM674.588 22V20.5938H674.945C675.24 20.5938 675.485 20.5362 675.681 20.4212C675.877 20.3018 676.034 20.0952 676.154 19.8011C676.277 19.5028 676.371 19.0895 676.435 18.5611C676.503 18.0284 676.552 17.3509 676.582 16.5284L676.761 12.1818H683.306V22H681.798V13.5881H678.193L678.039 17.0909C678.005 17.8963 677.933 18.6058 677.822 19.2195C677.715 19.8288 677.551 20.3402 677.33 20.7536C677.112 21.1669 676.823 21.478 676.46 21.6868C676.098 21.8956 675.644 22 675.099 22H674.588ZM690.191 22.2045C689.244 22.2045 688.428 21.9957 687.742 21.5781C687.061 21.1562 686.534 20.5682 686.164 19.8139C685.797 19.0554 685.614 18.1733 685.614 17.1676C685.614 16.1619 685.797 15.2756 686.164 14.5085C686.534 13.7372 687.05 13.1364 687.71 12.706C688.375 12.2713 689.151 12.054 690.037 12.054C690.548 12.054 691.053 12.1392 691.552 12.3097C692.051 12.4801 692.504 12.7571 692.914 13.1406C693.323 13.5199 693.649 14.0227 693.892 14.6491C694.134 15.2756 694.256 16.0469 694.256 16.9631V17.6023H686.688V16.2983H692.722C692.722 15.7443 692.611 15.25 692.389 14.8153C692.172 14.3807 691.861 14.0376 691.456 13.7862C691.056 13.5348 690.583 13.4091 690.037 13.4091C689.436 13.4091 688.916 13.5582 688.477 13.8565C688.043 14.1506 687.708 14.5341 687.474 15.0071C687.24 15.4801 687.122 15.9872 687.122 16.5284V17.3977C687.122 18.1392 687.25 18.7678 687.506 19.2834C687.766 19.7947 688.126 20.1847 688.586 20.4531C689.046 20.7173 689.581 20.8494 690.191 20.8494C690.587 20.8494 690.945 20.794 691.264 20.6832C691.588 20.5682 691.867 20.3977 692.102 20.1719C692.336 19.9418 692.517 19.6562 692.645 19.3153L694.102 19.7244C693.949 20.2188 693.691 20.6534 693.329 21.0284C692.967 21.3991 692.519 21.6889 691.987 21.8977C691.454 22.1023 690.855 22.2045 690.191 22.2045ZM696.551 22V12.1818H698.059V16.4517H699.056L702.585 12.1818H704.528L700.565 16.9119L704.579 22H702.636L699.414 17.858H698.059V22H696.551ZM705.656 13.5881V12.1818H713.633V13.5881H710.412V22H708.903V13.5881H705.656ZM715.834 25.6818V12.1818H717.291V13.7415H717.47C717.581 13.571 717.734 13.3537 717.93 13.0895C718.131 12.821 718.416 12.5824 718.787 12.3736C719.162 12.1605 719.669 12.054 720.308 12.054C721.135 12.054 721.864 12.2607 722.494 12.674C723.125 13.0874 723.617 13.6733 723.971 14.4318C724.325 15.1903 724.501 16.0852 724.501 17.1165C724.501 18.1562 724.325 19.0575 723.971 19.8203C723.617 20.5788 723.127 21.1669 722.501 21.5845C721.874 21.9979 721.152 22.2045 720.334 22.2045C719.703 22.2045 719.198 22.1001 718.819 21.8913C718.44 21.6783 718.148 21.4375 717.943 21.169C717.739 20.8963 717.581 20.6705 717.47 20.4915H717.342V25.6818H715.834ZM717.317 17.0909C717.317 17.8324 717.425 18.4865 717.643 19.0533C717.86 19.6158 718.178 20.0568 718.595 20.3764C719.013 20.6918 719.524 20.8494 720.129 20.8494C720.76 20.8494 721.286 20.6832 721.708 20.3509C722.134 20.0142 722.454 19.5625 722.667 18.9957C722.884 18.4247 722.993 17.7898 722.993 17.0909C722.993 16.4006 722.886 15.7784 722.673 15.2244C722.464 14.6662 722.147 14.2251 721.721 13.9013C721.299 13.5732 720.768 13.4091 720.129 13.4091C719.516 13.4091 719 13.5646 718.582 13.8757C718.165 14.1825 717.849 14.6129 717.636 15.1669C717.423 15.7166 717.317 16.358 717.317 17.0909ZM730.791 22.2045C729.905 22.2045 729.127 21.9936 728.458 21.5717C727.793 21.1499 727.273 20.5597 726.898 19.8011C726.528 19.0426 726.342 18.1562 726.342 17.142C726.342 16.1193 726.528 15.2266 726.898 14.4638C727.273 13.701 727.793 13.1087 728.458 12.6868C729.127 12.2649 729.905 12.054 730.791 12.054C731.678 12.054 732.453 12.2649 733.118 12.6868C733.787 13.1087 734.307 13.701 734.678 14.4638C735.053 15.2266 735.24 16.1193 735.24 17.142C735.24 18.1562 735.053 19.0426 734.678 19.8011C734.307 20.5597 733.787 21.1499 733.118 21.5717C732.453 21.9936 731.678 22.2045 730.791 22.2045ZM730.791 20.8494C731.464 20.8494 732.018 20.6768 732.453 20.3317C732.888 19.9865 733.21 19.5327 733.418 18.9702C733.627 18.4077 733.732 17.7983 733.732 17.142C733.732 16.4858 733.627 15.8743 733.418 15.3075C733.21 14.7408 732.888 14.2827 732.453 13.9332C732.018 13.5838 731.464 13.4091 730.791 13.4091C730.118 13.4091 729.564 13.5838 729.129 13.9332C728.695 14.2827 728.373 14.7408 728.164 15.3075C727.955 15.8743 727.851 16.4858 727.851 17.142C727.851 17.7983 727.955 18.4077 728.164 18.9702C728.373 19.5327 728.695 19.9865 729.129 20.3317C729.564 20.6768 730.118 20.8494 730.791 20.8494ZM741.531 22.2045C740.611 22.2045 739.818 21.9872 739.154 21.5526C738.489 21.1179 737.977 20.5192 737.619 19.7564C737.262 18.9936 737.083 18.1222 737.083 17.142C737.083 16.1449 737.266 15.2649 737.632 14.5021C738.003 13.7351 738.519 13.1364 739.179 12.706C739.844 12.2713 740.619 12.054 741.506 12.054C742.196 12.054 742.818 12.1818 743.372 12.4375C743.926 12.6932 744.38 13.0511 744.734 13.5114C745.088 13.9716 745.307 14.5085 745.392 15.1222H743.884C743.769 14.6747 743.513 14.2784 743.117 13.9332C742.725 13.5838 742.196 13.4091 741.531 13.4091C740.943 13.4091 740.428 13.5625 739.985 13.8693C739.546 14.1719 739.203 14.6001 738.955 15.1541C738.713 15.7038 738.591 16.3494 738.591 17.0909C738.591 17.8494 738.71 18.5099 738.949 19.0724C739.192 19.6349 739.533 20.0717 739.972 20.3828C740.415 20.6939 740.935 20.8494 741.531 20.8494C741.923 20.8494 742.279 20.7812 742.599 20.6449C742.919 20.5085 743.189 20.3125 743.411 20.0568C743.632 19.8011 743.79 19.4943 743.884 19.1364H745.392C745.307 19.7159 745.096 20.2379 744.759 20.7024C744.427 21.1626 743.986 21.5291 743.436 21.8018C742.891 22.0703 742.256 22.2045 741.531 22.2045ZM750.487 22.2301C749.865 22.2301 749.3 22.1129 748.793 21.8786C748.286 21.6399 747.883 21.2969 747.585 20.8494C747.286 20.3977 747.137 19.8523 747.137 19.2131C747.137 18.6506 747.248 18.1946 747.47 17.8452C747.691 17.4915 747.987 17.2145 748.358 17.0142C748.729 16.8139 749.138 16.6648 749.585 16.5668C750.037 16.4645 750.491 16.3835 750.947 16.3239C751.544 16.2472 752.027 16.1896 752.398 16.1513C752.773 16.1087 753.046 16.0384 753.216 15.9403C753.391 15.8423 753.478 15.6719 753.478 15.429V15.3778C753.478 14.7472 753.306 14.2571 752.96 13.9077C752.619 13.5582 752.102 13.3835 751.407 13.3835C750.687 13.3835 750.122 13.5412 749.713 13.8565C749.304 14.1719 749.017 14.5085 748.85 14.8665L747.419 14.3551C747.674 13.7585 748.015 13.294 748.441 12.9616C748.872 12.625 749.34 12.3906 749.847 12.2585C750.359 12.1222 750.862 12.054 751.356 12.054C751.671 12.054 752.034 12.0923 752.443 12.169C752.856 12.2415 753.254 12.3928 753.638 12.6229C754.026 12.853 754.347 13.2003 754.603 13.6648C754.859 14.1293 754.987 14.7514 754.987 15.5312V22H753.478V20.6705H753.401C753.299 20.8835 753.129 21.1115 752.89 21.3544C752.651 21.5973 752.334 21.804 751.938 21.9744C751.541 22.1449 751.058 22.2301 750.487 22.2301ZM750.717 20.875C751.313 20.875 751.816 20.7578 752.225 20.5234C752.639 20.2891 752.95 19.9865 753.159 19.6158C753.372 19.245 753.478 18.8551 753.478 18.446V17.0653C753.414 17.142 753.274 17.2124 753.056 17.2763C752.843 17.3359 752.596 17.3892 752.315 17.4361C752.038 17.4787 751.767 17.517 751.503 17.5511C751.243 17.581 751.032 17.6065 750.87 17.6278C750.478 17.679 750.112 17.7621 749.771 17.8771C749.434 17.9879 749.161 18.1562 748.953 18.3821C748.748 18.6037 748.646 18.9062 748.646 19.2898C748.646 19.8139 748.84 20.2102 749.227 20.4787C749.619 20.7429 750.116 20.875 750.717 20.875ZM763.109 19.9545L766.536 12.1818H767.967L763.723 22H762.496L758.328 12.1818H759.734L763.109 19.9545ZM759.249 12.1818V22H757.74V12.1818H759.249ZM766.97 22V12.1818H768.479V22H766.97ZM775.229 22.2045C774.342 22.2045 773.565 21.9936 772.896 21.5717C772.231 21.1499 771.711 20.5597 771.336 19.8011C770.965 19.0426 770.78 18.1562 770.78 17.142C770.78 16.1193 770.965 15.2266 771.336 14.4638C771.711 13.701 772.231 13.1087 772.896 12.6868C773.565 12.2649 774.342 12.054 775.229 12.054C776.115 12.054 776.891 12.2649 777.555 12.6868C778.224 13.1087 778.744 13.701 779.115 14.4638C779.49 15.2266 779.678 16.1193 779.678 17.142C779.678 18.1562 779.49 19.0426 779.115 19.8011C778.744 20.5597 778.224 21.1499 777.555 21.5717C776.891 21.9936 776.115 22.2045 775.229 22.2045ZM775.229 20.8494C775.902 20.8494 776.456 20.6768 776.891 20.3317C777.325 19.9865 777.647 19.5327 777.856 18.9702C778.065 18.4077 778.169 17.7983 778.169 17.142C778.169 16.4858 778.065 15.8743 777.856 15.3075C777.647 14.7408 777.325 14.2827 776.891 13.9332C776.456 13.5838 775.902 13.4091 775.229 13.4091C774.555 13.4091 774.001 13.5838 773.567 13.9332C773.132 14.2827 772.81 14.7408 772.602 15.3075C772.393 15.8743 772.288 16.4858 772.288 17.142C772.288 17.7983 772.393 18.4077 772.602 18.9702C772.81 19.5327 773.132 19.9865 773.567 20.3317C774.001 20.6768 774.555 20.8494 775.229 20.8494ZM781.98 22V12.1818H783.489V16.4517H784.486L788.014 12.1818H789.958L785.994 16.9119L790.009 22H788.066L784.844 17.858H783.489V22H781.98ZM794.537 22.2301C793.915 22.2301 793.351 22.1129 792.844 21.8786C792.336 21.6399 791.934 21.2969 791.635 20.8494C791.337 20.3977 791.188 19.8523 791.188 19.2131C791.188 18.6506 791.299 18.1946 791.52 17.8452C791.742 17.4915 792.038 17.2145 792.409 17.0142C792.78 16.8139 793.189 16.6648 793.636 16.5668C794.088 16.4645 794.542 16.3835 794.998 16.3239C795.594 16.2472 796.078 16.1896 796.449 16.1513C796.824 16.1087 797.096 16.0384 797.267 15.9403C797.442 15.8423 797.529 15.6719 797.529 15.429V15.3778C797.529 14.7472 797.356 14.2571 797.011 13.9077C796.67 13.5582 796.153 13.3835 795.458 13.3835C794.738 13.3835 794.173 13.5412 793.764 13.8565C793.355 14.1719 793.067 14.5085 792.901 14.8665L791.469 14.3551C791.725 13.7585 792.066 13.294 792.492 12.9616C792.922 12.625 793.391 12.3906 793.898 12.2585C794.41 12.1222 794.912 12.054 795.407 12.054C795.722 12.054 796.084 12.0923 796.493 12.169C796.907 12.2415 797.305 12.3928 797.689 12.6229C798.077 12.853 798.398 13.2003 798.654 13.6648C798.91 14.1293 799.037 14.7514 799.037 15.5312V22H797.529V20.6705H797.452C797.35 20.8835 797.18 21.1115 796.941 21.3544C796.702 21.5973 796.385 21.804 795.988 21.9744C795.592 22.1449 795.108 22.2301 794.537 22.2301ZM794.768 20.875C795.364 20.875 795.867 20.7578 796.276 20.5234C796.689 20.2891 797.001 19.9865 797.209 19.6158C797.422 19.245 797.529 18.8551 797.529 18.446V17.0653C797.465 17.142 797.324 17.2124 797.107 17.2763C796.894 17.3359 796.647 17.3892 796.366 17.4361C796.089 17.4787 795.818 17.517 795.554 17.5511C795.294 17.581 795.083 17.6065 794.921 17.6278C794.529 17.679 794.162 17.7621 793.822 17.8771C793.485 17.9879 793.212 18.1562 793.003 18.3821C792.799 18.6037 792.697 18.9062 792.697 19.2898C792.697 19.8139 792.89 20.2102 793.278 20.4787C793.67 20.7429 794.167 20.875 794.768 20.875ZM800.455 13.5881V12.1818H808.432V13.5881H805.211V22H803.702V13.5881H800.455ZM811.937 15.7358H814.749C815.9 15.7358 816.78 16.0277 817.389 16.6115C817.998 17.1953 818.303 17.9347 818.303 18.8295C818.303 19.4176 818.167 19.9524 817.894 20.4339C817.621 20.9112 817.221 21.2926 816.692 21.5781C816.164 21.8594 815.516 22 814.749 22H810.633V12.1818H812.141V20.5938H814.749C815.346 20.5938 815.836 20.4361 816.219 20.1207C816.603 19.8054 816.795 19.4006 816.795 18.9062C816.795 18.3864 816.603 17.9624 816.219 17.6342C815.836 17.3061 815.346 17.142 814.749 17.142H811.937V15.7358ZM819.863 22V12.1818H821.371V22H819.863Z" fill="white"/>
<path d="M0 29.5669V0H19.5809V5.15399H6.14385V12.1992H18.5734V17.3532H6.14385V24.4129H19.6376V29.5669H0Z" fill="white"/>
<path d="M37.9308 14.9856V19.8653H24.6783V14.9856H37.9308Z" fill="white"/>
<path d="M54.6739 7.39172V12.0115H41.549V7.39172H54.6739ZM44.5287 2.07892H50.5733V22.7526C50.5733 23.3205 50.6584 23.7632 50.8287 24.0808C50.9989 24.3888 51.2354 24.6054 51.5381 24.7305C51.8503 24.8556 52.2097 24.9182 52.6165 24.9182C52.9003 24.9182 53.1841 24.8941 53.4678 24.846C53.7516 24.7883 53.9692 24.7449 54.1205 24.7161L55.0712 29.2926C54.7685 29.3888 54.3428 29.4995 53.7942 29.6246C53.2455 29.7594 52.5787 29.8412 51.7935 29.8701C50.3368 29.9278 49.0598 29.7305 47.9625 29.2782C46.8747 28.8258 46.0281 28.1232 45.4227 27.1704C44.8173 26.2175 44.5193 25.0144 44.5287 23.5611V2.07892Z" fill="white"/>
<path d="M58.6114 29.5669V7.39172H64.4714V11.2608H64.6985C65.0957 9.8845 65.7626 8.84504 66.6991 8.14245C67.6356 7.43022 68.714 7.07411 69.9342 7.07411C70.2369 7.07411 70.5633 7.09336 70.9133 7.13186C71.2632 7.17036 71.5707 7.22329 71.8355 7.29066V12.7478C71.5518 12.6612 71.1592 12.5842 70.6579 12.5168C70.1565 12.4495 69.6977 12.4158 69.2815 12.4158C68.3923 12.4158 67.5977 12.6131 66.8978 13.0077C66.2072 13.3927 65.6586 13.9317 65.2518 14.6246C64.8545 15.3176 64.6559 16.1165 64.6559 17.0212V29.5669H58.6114Z" fill="white"/>
<path d="M80.5512 29.9856C79.1606 29.9856 77.9215 29.7401 76.8336 29.2493C75.7458 28.7488 74.885 28.0125 74.2512 27.0404C73.6269 26.0587 73.3148 24.8364 73.3148 23.3734C73.3148 22.1415 73.537 21.1068 73.9816 20.2695C74.4262 19.4321 75.0316 18.7584 75.7978 18.2483C76.564 17.7382 77.4343 17.3532 78.4086 17.0934C79.3924 16.8335 80.4235 16.6506 81.5018 16.5448C82.7694 16.41 83.791 16.2849 84.5667 16.1694C85.3423 16.0443 85.9052 15.8614 86.2551 15.6208C86.6051 15.3802 86.7801 15.0241 86.7801 14.5525V14.4658C86.7801 13.5515 86.4964 12.8441 85.9288 12.3436C85.3707 11.8431 84.5761 11.5929 83.545 11.5929C82.4572 11.5929 81.5917 11.8383 80.9484 12.3292C80.3052 12.8104 79.8795 13.4167 79.6714 14.1482L74.081 13.6862C74.3647 12.3388 74.9228 11.1742 75.7553 10.1925C76.5877 9.20115 77.6613 8.44081 78.9762 7.91145C80.3005 7.37247 81.8329 7.10298 83.5734 7.10298C84.7842 7.10298 85.943 7.24735 87.0497 7.53609C88.1659 7.82483 89.1544 8.27238 90.0152 8.87873C90.8855 9.48508 91.5713 10.2647 92.0727 11.2175C92.574 12.1607 92.8247 13.2916 92.8247 14.6102V29.5669H87.0923V26.4918H86.922C86.572 27.1848 86.1038 27.796 85.5173 28.3253C84.9308 28.845 84.2261 29.2541 83.4032 29.5525C82.5802 29.8412 81.6295 29.9856 80.5512 29.9856ZM82.2822 25.7411C83.1714 25.7411 83.9565 25.563 84.6376 25.2069C85.3187 24.8412 85.8531 24.3503 86.241 23.7344C86.6288 23.1184 86.8227 22.4206 86.8227 21.641V19.2878C86.6335 19.4129 86.3734 19.5284 86.0423 19.6343C85.7207 19.7305 85.3565 19.8219 84.9498 19.9086C84.543 19.9856 84.1363 20.0577 83.7295 20.1251C83.3228 20.1829 82.9538 20.2358 82.6228 20.2839C81.9133 20.3898 81.2937 20.5582 80.764 20.7892C80.2343 21.0202 79.8228 21.333 79.5295 21.7276C79.2363 22.1126 79.0897 22.5938 79.0897 23.1713C79.0897 24.0087 79.3877 24.6487 79.9836 25.0914C80.589 25.5245 81.3552 25.7411 82.2822 25.7411Z" fill="white"/>
<path d="M103.559 16.7469V29.5669H97.5142V7.39172H103.275V11.3041H103.53C104.013 10.0144 104.822 8.99423 105.957 8.2435C107.092 7.48316 108.468 7.10298 110.086 7.10298C111.599 7.10298 112.919 7.43985 114.044 8.11357C115.17 8.78729 116.045 9.74976 116.669 11.001C117.294 12.2425 117.606 13.7247 117.606 15.4475V29.5669H111.561V16.5448C111.571 15.1877 111.23 14.129 110.54 13.3686C109.849 12.5987 108.898 12.2137 107.688 12.2137C106.874 12.2137 106.155 12.3917 105.531 12.7478C104.916 13.1039 104.434 13.6237 104.084 14.307C103.743 14.9808 103.568 15.794 103.559 16.7469Z" fill="white"/>
<path d="M140.503 13.7151L134.97 14.0616C134.875 13.5804 134.672 13.1473 134.36 12.7623C134.047 12.3677 133.636 12.0549 133.125 11.8239C132.624 11.5833 132.023 11.4629 131.323 11.4629C130.387 11.4629 129.597 11.6651 128.954 12.0693C128.31 12.4639 127.989 12.9933 127.989 13.6574C127.989 14.1867 128.197 14.6343 128.613 15C129.029 15.3657 129.743 15.6593 130.756 15.8807L134.7 16.6891C136.819 17.1319 138.399 17.8441 139.439 18.8258C140.48 19.8075 141 21.0972 141 22.6949C141 24.1482 140.579 25.4235 139.737 26.5207C138.905 27.6179 137.76 28.4745 136.303 29.0905C134.856 29.6968 133.187 30 131.295 30C128.41 30 126.111 29.3888 124.399 28.1665C122.696 26.9346 121.698 25.2599 121.405 23.1424L127.35 22.8248C127.53 23.7199 127.965 24.4033 128.656 24.8749C129.346 25.3369 130.231 25.5679 131.309 25.5679C132.368 25.5679 133.22 25.3609 133.863 24.9471C134.516 24.5236 134.847 23.9798 134.856 23.3157C134.847 22.7575 134.615 22.3003 134.161 21.9442C133.707 21.5784 133.007 21.2993 132.061 21.1068L128.287 20.3417C126.158 19.9086 124.574 19.1578 123.533 18.0895C122.502 17.0212 121.987 15.6593 121.987 14.0038C121.987 12.5794 122.365 11.3523 123.122 10.3224C123.888 9.29259 124.962 8.49856 126.343 7.94033C127.733 7.3821 129.36 7.10298 131.224 7.10298C133.976 7.10298 136.143 7.6949 137.722 8.87873C139.312 10.0626 140.239 11.6747 140.503 13.7151Z" fill="white"/>
<path d="M0 30V0H19.9422V5.22949H6.25723V12.3779H18.9162V17.6074H6.25723V24.7705H20V30H0Z" fill="#B8FF20"/>
<path d="M1003.01 18.38C1001.78 18.38 1000.59 18.18 999.48 17.82C999.13 17.7 998.74 17.79 998.47 18.06L996.9 20.03C994.07 18.68 991.42 16.13 990.01 13.2L991.96 11.54C992.23 11.26 992.31 10.87 992.2 10.52C991.83 9.41 991.64 8.22 991.64 6.99C991.64 6.45 991.19 6 990.65 6H987.19C986.65 6 986 6.24 986 6.99C986 16.28 993.73 24 1003.01 24C1003.72 24 1004 23.37 1004 22.82V19.37C1004 18.83 1003.55 18.38 1003.01 18.38Z" fill="#B8FF20"/>
<path d="M1014.97 20.0057V10.9545H1017.26V20.0057H1014.97ZM1011.59 16.6243V14.3359H1020.64V16.6243H1011.59ZM1023.29 22L1028.71 11.2614V11.1719H1022.39V8.90909H1031.58V11.2038L1026.14 22H1023.29ZM1034.1 15.4545C1034.1 13.8693 1034.31 12.4098 1034.73 11.076C1035.16 9.74219 1035.81 8.50639 1036.68 7.36861H1039.28C1038.95 7.79048 1038.64 8.30611 1038.36 8.91548C1038.07 9.5206 1037.82 10.1854 1037.61 10.9098C1037.4 11.6342 1037.23 12.3842 1037.11 13.1598C1036.99 13.9311 1036.93 14.696 1036.93 15.4545C1036.93 16.4645 1037.03 17.4851 1037.24 18.5163C1037.45 19.5433 1037.73 20.4979 1038.08 21.38C1038.44 22.2621 1038.84 22.9844 1039.28 23.5469H1036.68C1035.81 22.4091 1035.16 21.1733 1034.73 19.8395C1034.31 18.5057 1034.1 17.044 1034.1 15.4545ZM1045.68 22.179C1044.72 22.179 1043.87 22.0149 1043.13 21.6868C1042.39 21.3544 1041.8 20.8984 1041.37 20.3189C1040.94 19.7351 1040.72 19.0618 1040.71 18.299H1043.5C1043.51 18.6186 1043.62 18.8999 1043.81 19.1428C1044.01 19.3814 1044.27 19.5668 1044.59 19.6989C1044.91 19.831 1045.28 19.897 1045.68 19.897C1046.11 19.897 1046.48 19.8224 1046.8 19.6733C1047.13 19.5241 1047.38 19.3175 1047.56 19.0533C1047.75 18.7891 1047.84 18.4844 1047.84 18.1392C1047.84 17.7898 1047.74 17.4808 1047.54 17.2124C1047.35 16.9396 1047.07 16.7266 1046.71 16.5732C1046.35 16.4197 1045.93 16.343 1045.43 16.343H1044.21V14.3104H1045.43C1045.85 14.3104 1046.22 14.2379 1046.54 14.093C1046.86 13.9482 1047.12 13.7479 1047.29 13.4922C1047.47 13.2322 1047.56 12.9297 1047.56 12.5845C1047.56 12.2564 1047.48 11.9688 1047.33 11.7216C1047.17 11.4702 1046.96 11.2741 1046.67 11.1335C1046.4 10.9929 1046.07 10.9226 1045.7 10.9226C1045.33 10.9226 1044.98 10.9908 1044.67 11.1271C1044.36 11.2592 1044.11 11.4489 1043.93 11.696C1043.74 11.9432 1043.64 12.233 1043.63 12.5653H1040.97C1040.99 11.8111 1041.2 11.1463 1041.62 10.571C1042.04 9.99574 1042.6 9.54616 1043.31 9.2223C1044.02 8.89418 1044.82 8.73011 1045.72 8.73011C1046.62 8.73011 1047.41 8.89418 1048.09 9.2223C1048.76 9.55043 1049.29 9.99361 1049.67 10.5518C1050.05 11.1058 1050.23 11.728 1050.23 12.4183C1050.23 13.1513 1050 13.7628 1049.54 14.2528C1049.09 14.7429 1048.49 15.054 1047.76 15.1861V15.2884C1048.72 15.4119 1049.46 15.7464 1049.96 16.2919C1050.47 16.8331 1050.72 17.5107 1050.71 18.3246C1050.72 19.0703 1050.5 19.733 1050.07 20.3125C1049.64 20.892 1049.04 21.348 1048.29 21.6804C1047.53 22.0128 1046.66 22.179 1045.68 22.179ZM1057.59 22.179C1056.6 22.179 1055.73 22.0192 1054.96 21.6996C1054.2 21.3757 1053.6 20.9347 1053.16 20.3764C1052.73 19.8182 1052.51 19.1854 1052.51 18.478C1052.51 17.9325 1052.64 17.4318 1052.88 16.9759C1053.13 16.5156 1053.47 16.1342 1053.91 15.8317C1054.34 15.5249 1054.82 15.3288 1055.35 15.2436V15.1541C1054.65 15.0135 1054.08 14.6747 1053.65 14.1378C1053.22 13.5966 1053 12.968 1053 12.2521C1053 11.5746 1053.2 10.9716 1053.59 10.4432C1053.99 9.91051 1054.53 9.4929 1055.22 9.19034C1055.92 8.88352 1056.71 8.73011 1057.59 8.73011C1058.47 8.73011 1059.26 8.88352 1059.95 9.19034C1060.64 9.49716 1061.19 9.9169 1061.58 10.4496C1061.98 10.978 1062.18 11.5788 1062.18 12.2521C1062.18 12.9723 1061.96 13.6009 1061.52 14.1378C1061.08 14.6747 1060.52 15.0135 1059.83 15.1541V15.2436C1060.35 15.3288 1060.83 15.5249 1061.26 15.8317C1061.69 16.1342 1062.03 16.5156 1062.28 16.9759C1062.53 17.4318 1062.66 17.9325 1062.67 18.478C1062.66 19.1854 1062.45 19.8182 1062.01 20.3764C1061.58 20.9347 1060.97 21.3757 1060.21 21.6996C1059.45 22.0192 1058.57 22.179 1057.59 22.179ZM1057.59 20.1463C1058.03 20.1463 1058.41 20.0675 1058.74 19.9098C1059.07 19.7479 1059.32 19.5263 1059.5 19.245C1059.69 18.9595 1059.79 18.6314 1059.79 18.2607C1059.79 17.8814 1059.69 17.5469 1059.5 17.2571C1059.31 16.9631 1059.05 16.733 1058.72 16.5668C1058.39 16.3963 1058.01 16.3111 1057.59 16.3111C1057.17 16.3111 1056.79 16.3963 1056.46 16.5668C1056.12 16.733 1055.86 16.9631 1055.67 17.2571C1055.48 17.5469 1055.39 17.8814 1055.39 18.2607C1055.39 18.6314 1055.48 18.9595 1055.66 19.245C1055.85 19.5263 1056.1 19.7479 1056.44 19.9098C1056.77 20.0675 1057.15 20.1463 1057.59 20.1463ZM1057.59 14.2976C1057.95 14.2976 1058.28 14.223 1058.57 14.0739C1058.85 13.9247 1059.07 13.718 1059.24 13.4538C1059.4 13.1896 1059.48 12.8849 1059.48 12.5398C1059.48 12.1989 1059.4 11.9006 1059.24 11.6449C1059.07 11.3849 1058.85 11.1825 1058.57 11.0376C1058.29 10.8885 1057.96 10.8139 1057.59 10.8139C1057.22 10.8139 1056.89 10.8885 1056.6 11.0376C1056.32 11.1825 1056.09 11.3849 1055.93 11.6449C1055.77 11.9006 1055.7 12.1989 1055.7 12.5398C1055.7 12.8849 1055.78 13.1896 1055.94 13.4538C1056.1 13.718 1056.32 13.9247 1056.61 14.0739C1056.89 14.223 1057.22 14.2976 1057.59 14.2976ZM1064.41 19.6989V17.5192L1069.87 8.90909H1071.75V11.9261H1070.64L1067.19 17.3786V17.4808H1074.96V19.6989H1064.41ZM1070.69 22V19.0341L1070.74 18.0689V8.90909H1073.34V22H1070.69ZM1081.42 15.4545C1081.42 17.044 1081.21 18.5057 1080.78 19.8395C1080.36 21.1733 1079.71 22.4091 1078.84 23.5469H1076.23C1076.57 23.125 1076.88 22.6094 1077.16 22C1077.45 21.3906 1077.7 20.7259 1077.91 20.0057C1078.12 19.2812 1078.29 18.5312 1078.41 17.7557C1078.53 16.9801 1078.59 16.2131 1078.59 15.4545C1078.59 14.4446 1078.48 13.4261 1078.27 12.3991C1078.07 11.3679 1077.79 10.4134 1077.43 9.53551C1077.08 8.65341 1076.68 7.93111 1076.23 7.36861H1078.84C1079.71 8.50639 1080.36 9.74219 1080.78 11.076C1081.21 12.4098 1081.42 13.8693 1081.42 15.4545ZM1089.05 22.179C1088.07 22.179 1087.19 22.0192 1086.42 21.6996C1085.66 21.3757 1085.06 20.9347 1084.63 20.3764C1084.19 19.8182 1083.98 19.1854 1083.98 18.478C1083.98 17.9325 1084.1 17.4318 1084.35 16.9759C1084.6 16.5156 1084.94 16.1342 1085.37 15.8317C1085.8 15.5249 1086.28 15.3288 1086.81 15.2436V15.1541C1086.12 15.0135 1085.55 14.6747 1085.11 14.1378C1084.68 13.5966 1084.46 12.968 1084.46 12.2521C1084.46 11.5746 1084.66 10.9716 1085.06 10.4432C1085.45 9.91051 1086 9.4929 1086.69 9.19034C1087.38 8.88352 1088.17 8.73011 1089.05 8.73011C1089.93 8.73011 1090.72 8.88352 1091.41 9.19034C1092.11 9.49716 1092.65 9.9169 1093.05 10.4496C1093.44 10.978 1093.64 11.5788 1093.65 12.2521C1093.64 12.9723 1093.42 13.6009 1092.98 14.1378C1092.54 14.6747 1091.98 15.0135 1091.3 15.1541V15.2436C1091.82 15.3288 1092.29 15.5249 1092.72 15.8317C1093.15 16.1342 1093.49 16.5156 1093.74 16.9759C1094 17.4318 1094.13 17.9325 1094.13 18.478C1094.13 19.1854 1093.91 19.8182 1093.48 20.3764C1093.04 20.9347 1092.44 21.3757 1091.67 21.6996C1090.91 22.0192 1090.04 22.179 1089.05 22.179ZM1089.05 20.1463C1089.49 20.1463 1089.87 20.0675 1090.2 19.9098C1090.53 19.7479 1090.79 19.5263 1090.97 19.245C1091.16 18.9595 1091.25 18.6314 1091.25 18.2607C1091.25 17.8814 1091.16 17.5469 1090.96 17.2571C1090.77 16.9631 1090.51 16.733 1090.18 16.5668C1089.86 16.3963 1089.48 16.3111 1089.05 16.3111C1088.63 16.3111 1088.25 16.3963 1087.92 16.5668C1087.59 16.733 1087.33 16.9631 1087.13 17.2571C1086.95 17.5469 1086.85 17.8814 1086.85 18.2607C1086.85 18.6314 1086.94 18.9595 1087.13 19.245C1087.31 19.5263 1087.57 19.7479 1087.9 19.9098C1088.23 20.0675 1088.62 20.1463 1089.05 20.1463ZM1089.05 14.2976C1089.42 14.2976 1089.74 14.223 1090.03 14.0739C1090.32 13.9247 1090.54 13.718 1090.7 13.4538C1090.86 13.1896 1090.94 12.8849 1090.94 12.5398C1090.94 12.1989 1090.86 11.9006 1090.7 11.6449C1090.54 11.3849 1090.32 11.1825 1090.04 11.0376C1089.76 10.8885 1089.43 10.8139 1089.05 10.8139C1088.68 10.8139 1088.35 10.8885 1088.07 11.0376C1087.78 11.1825 1087.56 11.3849 1087.4 11.6449C1087.24 11.9006 1087.16 12.1989 1087.16 12.5398C1087.16 12.8849 1087.24 13.1896 1087.4 13.4538C1087.56 13.718 1087.79 13.9247 1088.07 14.0739C1088.36 14.223 1088.69 14.2976 1089.05 14.2976ZM1100.95 22.179C1099.97 22.179 1099.09 22.0192 1098.33 21.6996C1097.56 21.3757 1096.96 20.9347 1096.53 20.3764C1096.09 19.8182 1095.88 19.1854 1095.88 18.478C1095.88 17.9325 1096 17.4318 1096.25 16.9759C1096.5 16.5156 1096.84 16.1342 1097.27 15.8317C1097.7 15.5249 1098.18 15.3288 1098.72 15.2436V15.1541C1098.02 15.0135 1097.45 14.6747 1097.01 14.1378C1096.58 13.5966 1096.36 12.968 1096.36 12.2521C1096.36 11.5746 1096.56 10.9716 1096.96 10.4432C1097.35 9.91051 1097.9 9.4929 1098.59 9.19034C1099.28 8.88352 1100.07 8.73011 1100.95 8.73011C1101.83 8.73011 1102.62 8.88352 1103.31 9.19034C1104.01 9.49716 1104.55 9.9169 1104.95 10.4496C1105.34 10.978 1105.54 11.5788 1105.55 12.2521C1105.54 12.9723 1105.32 13.6009 1104.88 14.1378C1104.44 14.6747 1103.88 15.0135 1103.2 15.1541V15.2436C1103.72 15.3288 1104.2 15.5249 1104.62 15.8317C1105.05 16.1342 1105.39 16.5156 1105.64 16.9759C1105.9 17.4318 1106.03 17.9325 1106.03 18.478C1106.03 19.1854 1105.81 19.8182 1105.38 20.3764C1104.94 20.9347 1104.34 21.3757 1103.57 21.6996C1102.81 22.0192 1101.94 22.179 1100.95 22.179ZM1100.95 20.1463C1101.39 20.1463 1101.77 20.0675 1102.1 19.9098C1102.43 19.7479 1102.69 19.5263 1102.87 19.245C1103.06 18.9595 1103.15 18.6314 1103.15 18.2607C1103.15 17.8814 1103.06 17.5469 1102.86 17.2571C1102.67 16.9631 1102.41 16.733 1102.08 16.5668C1101.76 16.3963 1101.38 16.3111 1100.95 16.3111C1100.53 16.3111 1100.15 16.3963 1099.82 16.5668C1099.49 16.733 1099.23 16.9631 1099.03 17.2571C1098.85 17.5469 1098.75 17.8814 1098.75 18.2607C1098.75 18.6314 1098.85 18.9595 1099.03 19.245C1099.21 19.5263 1099.47 19.7479 1099.8 19.9098C1100.13 20.0675 1100.52 20.1463 1100.95 20.1463ZM1100.95 14.2976C1101.32 14.2976 1101.64 14.223 1101.93 14.0739C1102.22 13.9247 1102.44 13.718 1102.6 13.4538C1102.76 13.1896 1102.84 12.8849 1102.84 12.5398C1102.84 12.1989 1102.76 11.9006 1102.6 11.6449C1102.44 11.3849 1102.22 11.1825 1101.94 11.0376C1101.66 10.8885 1101.33 10.8139 1100.95 10.8139C1100.58 10.8139 1100.25 10.8885 1099.97 11.0376C1099.68 11.1825 1099.46 11.3849 1099.3 11.6449C1099.14 11.9006 1099.06 12.1989 1099.06 12.5398C1099.06 12.8849 1099.14 13.1896 1099.3 13.4538C1099.47 13.718 1099.69 13.9247 1099.97 14.0739C1100.26 14.223 1100.59 14.2976 1100.95 14.2976ZM1112.81 22.179C1111.85 22.179 1111 22.0149 1110.26 21.6868C1109.52 21.3544 1108.93 20.8984 1108.5 20.3189C1108.07 19.7351 1107.85 19.0618 1107.84 18.299H1110.63C1110.65 18.6186 1110.75 18.8999 1110.94 19.1428C1111.14 19.3814 1111.4 19.5668 1111.72 19.6989C1112.05 19.831 1112.41 19.897 1112.81 19.897C1113.24 19.897 1113.61 19.8224 1113.93 19.6733C1114.26 19.5241 1114.51 19.3175 1114.69 19.0533C1114.88 18.7891 1114.97 18.4844 1114.97 18.1392C1114.97 17.7898 1114.87 17.4808 1114.67 17.2124C1114.48 16.9396 1114.21 16.7266 1113.84 16.5732C1113.49 16.4197 1113.06 16.343 1112.57 16.343H1111.34V14.3104H1112.57C1112.98 14.3104 1113.35 14.2379 1113.67 14.093C1113.99 13.9482 1114.25 13.7479 1114.43 13.4922C1114.6 13.2322 1114.69 12.9297 1114.69 12.5845C1114.69 12.2564 1114.61 11.9688 1114.46 11.7216C1114.3 11.4702 1114.09 11.2741 1113.81 11.1335C1113.53 10.9929 1113.2 10.9226 1112.83 10.9226C1112.46 10.9226 1112.12 10.9908 1111.8 11.1271C1111.49 11.2592 1111.24 11.4489 1111.06 11.696C1110.87 11.9432 1110.77 12.233 1110.76 12.5653H1108.1C1108.12 11.8111 1108.33 11.1463 1108.75 10.571C1109.17 9.99574 1109.73 9.54616 1110.44 9.2223C1111.15 8.89418 1111.95 8.73011 1112.85 8.73011C1113.75 8.73011 1114.54 8.89418 1115.22 9.2223C1115.9 9.55043 1116.42 9.99361 1116.8 10.5518C1117.18 11.1058 1117.36 11.728 1117.36 12.4183C1117.36 13.1513 1117.14 13.7628 1116.68 14.2528C1116.22 14.7429 1115.62 15.054 1114.89 15.1861V15.2884C1115.85 15.4119 1116.59 15.7464 1117.09 16.2919C1117.6 16.8331 1117.85 17.5107 1117.84 18.3246C1117.85 19.0703 1117.63 19.733 1117.2 20.3125C1116.77 20.892 1116.17 21.348 1115.42 21.6804C1114.66 22.0128 1113.79 22.179 1112.81 22.179ZM1125.98 14.3743V16.5348H1120.01V14.3743H1125.98ZM1133.02 22.179C1132.07 22.179 1131.22 22.0149 1130.47 21.6868C1129.73 21.3544 1129.15 20.8984 1128.71 20.3189C1128.29 19.7351 1128.07 19.0618 1128.06 18.299H1130.84C1130.86 18.6186 1130.96 18.8999 1131.16 19.1428C1131.35 19.3814 1131.61 19.5668 1131.94 19.6989C1132.26 19.831 1132.62 19.897 1133.03 19.897C1133.45 19.897 1133.82 19.8224 1134.15 19.6733C1134.47 19.5241 1134.73 19.3175 1134.91 19.0533C1135.09 18.7891 1135.18 18.4844 1135.18 18.1392C1135.18 17.7898 1135.09 17.4808 1134.89 17.2124C1134.7 16.9396 1134.42 16.7266 1134.06 16.5732C1133.7 16.4197 1133.27 16.343 1132.78 16.343H1131.56V14.3104H1132.78C1133.2 14.3104 1133.57 14.2379 1133.89 14.093C1134.21 13.9482 1134.46 13.7479 1134.64 13.4922C1134.82 13.2322 1134.91 12.9297 1134.91 12.5845C1134.91 12.2564 1134.83 11.9688 1134.67 11.7216C1134.52 11.4702 1134.3 11.2741 1134.02 11.1335C1133.74 10.9929 1133.42 10.9226 1133.05 10.9226C1132.67 10.9226 1132.33 10.9908 1132.02 11.1271C1131.71 11.2592 1131.46 11.4489 1131.27 11.696C1131.08 11.9432 1130.98 12.233 1130.97 12.5653H1128.32C1128.33 11.8111 1128.55 11.1463 1128.96 10.571C1129.38 9.99574 1129.94 9.54616 1130.65 9.2223C1131.36 8.89418 1132.17 8.73011 1133.06 8.73011C1133.96 8.73011 1134.76 8.89418 1135.43 9.2223C1136.11 9.55043 1136.64 9.99361 1137.01 10.5518C1137.39 11.1058 1137.58 11.728 1137.57 12.4183C1137.58 13.1513 1137.35 13.7628 1136.89 14.2528C1136.43 14.7429 1135.84 15.054 1135.11 15.1861V15.2884C1136.07 15.4119 1136.8 15.7464 1137.31 16.2919C1137.81 16.8331 1138.06 17.5107 1138.06 18.3246C1138.06 19.0703 1137.85 19.733 1137.41 20.3125C1136.98 20.892 1136.39 21.348 1135.63 21.6804C1134.87 22.0128 1134 22.179 1133.02 22.179ZM1144.93 22.179C1143.95 22.179 1143.07 22.0192 1142.31 21.6996C1141.54 21.3757 1140.94 20.9347 1140.51 20.3764C1140.07 19.8182 1139.86 19.1854 1139.86 18.478C1139.86 17.9325 1139.98 17.4318 1140.23 16.9759C1140.48 16.5156 1140.82 16.1342 1141.25 15.8317C1141.68 15.5249 1142.16 15.3288 1142.7 15.2436V15.1541C1142 15.0135 1141.43 14.6747 1141 14.1378C1140.56 13.5966 1140.34 12.968 1140.34 12.2521C1140.34 11.5746 1140.54 10.9716 1140.94 10.4432C1141.33 9.91051 1141.88 9.4929 1142.57 9.19034C1143.26 8.88352 1144.05 8.73011 1144.93 8.73011C1145.81 8.73011 1146.6 8.88352 1147.29 9.19034C1147.99 9.49716 1148.53 9.9169 1148.93 10.4496C1149.32 10.978 1149.52 11.5788 1149.53 12.2521C1149.52 12.9723 1149.3 13.6009 1148.86 14.1378C1148.43 14.6747 1147.86 15.0135 1147.18 15.1541V15.2436C1147.7 15.3288 1148.18 15.5249 1148.6 15.8317C1149.03 16.1342 1149.37 16.5156 1149.62 16.9759C1149.88 17.4318 1150.01 17.9325 1150.01 18.478C1150.01 19.1854 1149.79 19.8182 1149.36 20.3764C1148.92 20.9347 1148.32 21.3757 1147.55 21.6996C1146.79 22.0192 1145.92 22.179 1144.93 22.179ZM1144.93 20.1463C1145.37 20.1463 1145.76 20.0675 1146.08 19.9098C1146.41 19.7479 1146.67 19.5263 1146.85 19.245C1147.04 18.9595 1147.13 18.6314 1147.13 18.2607C1147.13 17.8814 1147.04 17.5469 1146.84 17.2571C1146.65 16.9631 1146.39 16.733 1146.06 16.5668C1145.74 16.3963 1145.36 16.3111 1144.93 16.3111C1144.51 16.3111 1144.13 16.3963 1143.8 16.5668C1143.47 16.733 1143.21 16.9631 1143.02 17.2571C1142.83 17.5469 1142.73 17.8814 1142.73 18.2607C1142.73 18.6314 1142.83 18.9595 1143.01 19.245C1143.19 19.5263 1143.45 19.7479 1143.78 19.9098C1144.11 20.0675 1144.5 20.1463 1144.93 20.1463ZM1144.93 14.2976C1145.3 14.2976 1145.63 14.223 1145.91 14.0739C1146.2 13.9247 1146.42 13.718 1146.58 13.4538C1146.74 13.1896 1146.82 12.8849 1146.82 12.5398C1146.82 12.1989 1146.74 11.9006 1146.58 11.6449C1146.42 11.3849 1146.2 11.1825 1145.92 11.0376C1145.64 10.8885 1145.31 10.8139 1144.93 10.8139C1144.56 10.8139 1144.23 10.8885 1143.95 11.0376C1143.66 11.1825 1143.44 11.3849 1143.28 11.6449C1143.12 11.9006 1143.04 12.1989 1143.04 12.5398C1143.04 12.8849 1143.12 13.1896 1143.28 13.4538C1143.45 13.718 1143.67 13.9247 1143.95 14.0739C1144.24 14.223 1144.57 14.2976 1144.93 14.2976ZM1158.09 14.3743V16.5348H1152.12V14.3743H1158.09ZM1166.08 8.90909V22H1163.31V11.5362H1163.24L1160.24 13.4155V10.9609L1163.48 8.90909H1166.08ZM1169.19 22V20.0057L1173.85 15.6911C1174.25 15.3075 1174.58 14.9624 1174.85 14.6555C1175.12 14.3487 1175.33 14.0483 1175.47 13.7543C1175.61 13.456 1175.68 13.1342 1175.68 12.7891C1175.68 12.4055 1175.59 12.0753 1175.42 11.7983C1175.25 11.517 1175.01 11.3018 1174.7 11.1527C1174.4 10.9993 1174.06 10.9226 1173.67 10.9226C1173.27 10.9226 1172.92 11.0036 1172.63 11.1655C1172.33 11.3274 1172.1 11.5597 1171.94 11.8622C1171.77 12.1648 1171.69 12.5249 1171.69 12.9425H1169.07C1169.07 12.0859 1169.26 11.3423 1169.65 10.7116C1170.04 10.081 1170.58 9.59304 1171.28 9.24787C1171.98 8.9027 1172.78 8.73011 1173.69 8.73011C1174.63 8.73011 1175.45 8.89631 1176.14 9.22869C1176.84 9.55682 1177.38 10.0128 1177.77 10.5966C1178.16 11.1804 1178.35 11.8494 1178.35 12.6037C1178.35 13.098 1178.26 13.5859 1178.06 14.0675C1177.87 14.549 1177.52 15.0838 1177.03 15.6719C1176.54 16.2557 1175.84 16.9567 1174.94 17.7749L1173.03 19.6477V19.7372H1178.53V22H1169.19Z" fill="white"/>
</svg>
