<svg width="20" height="16" viewBox="0 0 20 16" fill="none" xmlns="http://www.w3.org/2000/svg">
<path d="M18 0.00012207H2C0.9 0.00012207 0.00999999 0.900122 0.00999999 2.00012L0 14.0001C0 15.1001 0.9 16.0001 2 16.0001H18C19.1 16.0001 20 15.1001 20 14.0001V2.00012C20 0.900122 19.1 0.00012207 18 0.00012207ZM17.6 4.25012L10.53 8.67012C10.21 8.87012 9.79 8.87012 9.47 8.67012L2.4 4.25012C2.29973 4.19383 2.21192 4.11778 2.14189 4.02658C2.07186 3.93537 2.02106 3.8309 1.99258 3.71949C1.96409 3.60809 1.9585 3.49206 1.97616 3.37843C1.99381 3.2648 2.03434 3.15594 2.09528 3.05842C2.15623 2.96091 2.23632 2.87678 2.33073 2.81112C2.42513 2.74546 2.53187 2.69963 2.6445 2.67642C2.75712 2.65321 2.87328 2.65309 2.98595 2.67607C3.09863 2.69905 3.20546 2.74466 3.3 2.81012L10 7.00012L16.7 2.81012C16.7945 2.74466 16.9014 2.69905 17.014 2.67607C17.1267 2.65309 17.2429 2.65321 17.3555 2.67642C17.4681 2.69963 17.5749 2.74546 17.6693 2.81112C17.7637 2.87678 17.8438 2.96091 17.9047 3.05842C17.9657 3.15594 18.0062 3.2648 18.0238 3.37843C18.0415 3.49206 18.0359 3.60809 18.0074 3.71949C17.9789 3.8309 17.9281 3.93537 17.8581 4.02658C17.7881 4.11778 17.7003 4.19383 17.6 4.25012Z" fill="#B8FF20"/>
</svg>
