<svg width="18" height="18" viewBox="0 0 18 18" fill="none" xmlns="http://www.w3.org/2000/svg">
<path d="M17.01 12.3801C15.78 12.3801 14.59 12.1801 13.48 11.8201C13.13 11.7001 12.74 11.7901 12.47 12.0601L10.9 14.0301C8.07 12.6801 5.42 10.1301 4.01 7.20012L5.96 5.54012C6.23 5.26012 6.31 4.87012 6.2 4.52012C5.83 3.41012 5.64 2.22012 5.64 0.990122C5.64 0.450122 5.19 0.00012207 4.65 0.00012207H1.19C0.65 0.00012207 0 0.240122 0 0.990122C0 10.2801 7.73 18.0001 17.01 18.0001C17.72 18.0001 18 17.3701 18 16.8201V13.3701C18 12.8301 17.55 12.3801 17.01 12.3801Z" fill="#B8FF20"/>
</svg>
